# Blender v2.78 (sub 0) OBJ File: ''
# www.blender.org
o Cube
v 1.000000 -1.000000 -1.000000
v 1.000000 -1.000000 1.000000
v -1.000000 -1.000000 1.000000
v -1.000000 -1.000000 -1.000000
v 0.366138 0.298879 -0.366137
v 0.366137 0.298879 0.366138
v -0.366138 0.298879 0.366138
v -0.366138 0.298879 -0.366138
v 1.101885 1.262891 -1.101884
v 1.101884 1.262891 1.101885
v -1.101885 1.262891 1.101884
v -1.101884 1.262891 -1.101885
v 1.101885 2.495766 -1.101884
v 1.101884 2.495766 1.101885
v -1.101885 2.495766 1.101884
v -1.101884 2.495766 -1.101885
v 0.457306 3.175777 -0.457305
v 0.457305 3.175777 0.457306
v -0.457306 3.175777 0.457306
v -0.457305 3.175777 -0.457305
vn 0.0000 -1.0000 0.0000
vn -0.7949 -0.6067 -0.0000
vn 0.8987 0.4386 0.0000
vn -0.0000 0.4386 0.8987
vn -0.8987 0.4386 -0.0000
vn 0.0000 0.4386 -0.8987
vn -0.0000 0.0000 1.0000
vn 0.0000 -0.6067 -0.7949
vn -0.0000 -0.6067 0.7949
vn 0.7949 -0.6067 0.0000
vn -0.0000 0.6879 0.7258
vn 1.0000 0.0000 0.0000
vn -1.0000 0.0000 -0.0000
vn 0.0000 0.0000 -1.0000
vn 0.0000 1.0000 -0.0000
vn 0.7258 0.6879 0.0000
vn -0.7258 0.6879 -0.0000
vn 0.0000 0.6879 -0.7258
s off
f 2//1 4//1 1//1
f 7//2 12//2 8//2
f 5//3 2//3 1//3
f 6//4 3//4 2//4
f 3//5 8//5 4//5
f 1//6 8//6 5//6
f 10//7 15//7 11//7
f 5//8 12//8 9//8
f 7//9 10//9 11//9
f 5//10 10//10 6//10
f 14//11 19//11 15//11
f 9//12 14//12 10//12
f 11//13 16//13 12//13
f 12//14 13//14 9//14
f 20//15 18//15 17//15
f 14//16 17//16 18//16
f 15//17 20//17 16//17
f 16//18 17//18 13//18
f 2//1 3//1 4//1
f 7//2 11//2 12//2
f 5//3 6//3 2//3
f 6//4 7//4 3//4
f 3//5 7//5 8//5
f 1//6 4//6 8//6
f 10//7 14//7 15//7
f 5//8 8//8 12//8
f 7//9 6//9 10//9
f 5//10 9//10 10//10
f 14//11 18//11 19//11
f 9//12 13//12 14//12
f 11//13 15//13 16//13
f 12//14 16//14 13//14
f 20//15 19//15 18//15
f 14//16 13//16 17//16
f 15//17 19//17 20//17
f 16//18 20//18 17//18
